<?xml version="1.0" encoding="UTF-8"?>
<!-- Generated by Pixelmator Pro 2.3.8 -->
<svg width="1080" height="1080" viewBox="0 0 1080 1080" xmlns="http://www.w3.org/2000/svg" xmlns:xlink="http://www.w3.org/1999/xlink">
    <path id="V" fill="#000" fill-rule="evenodd" stroke="none" d="M 895.934814 198.143799 L 895.934814 216.42157 C 871.564331 220.373596 849.828857 233.381958 830.7276 255.447144 C 816.895691 271.913696 796.312805 310.609558 768.978333 371.535767 L 538.28302 883.313843 L 521.981201 883.313843 L 292.273895 350.788025 C 264.610077 286.568481 246.08548 248.860596 236.699554 237.66333 C 227.313599 226.466064 209.612335 219.385559 183.595154 216.42157 L 183.595154 198.143799 L 504.691406 198.143799 L 504.691406 216.42157 L 493.823547 216.42157 C 464.842407 216.42157 445.082825 220.044189 434.54425 227.28949 C 426.969604 232.229431 423.182373 239.474609 423.182373 249.025208 C 423.182373 254.953186 424.499695 261.951355 427.134338 270.019958 C 429.768982 278.088562 438.660767 299.74176 453.809998 334.980225 L 596.574341 668.426331 L 728.964783 371.535767 C 744.772705 335.638672 754.487854 311.5979 758.110474 299.412659 C 761.733093 287.227356 763.544434 276.853577 763.544434 268.291016 C 763.544434 258.411072 760.90979 249.683899 755.640503 242.109314 C 750.371216 234.534668 742.632019 228.771484 732.422791 224.819519 C 718.261536 219.220886 699.489929 216.42157 676.107422 216.42157 L 676.107422 198.143799 Z"/>
</svg>
